<?xml version="1.0" encoding="utf-8"?>
<!-- Generator: Adobe Illustrator 19.1.0, SVG Export Plug-In . SVG Version: 6.00 Build 0)  -->
<svg version="1.1" id="Layer_1" xmlns="http://www.w3.org/2000/svg" xmlns:xlink="http://www.w3.org/1999/xlink" x="0px" y="0px"
	 viewBox="0 0 329.9 78.5" style="enable-background:new 0 0 329.9 78.5;" xml:space="preserve">
<style type="text/css">
	.st0{fill:#555759;}
	.st1{clip-path:url(#SVGID_2_);fill:#555759;}
</style>
<g>
	<path class="st0" d="M132.1,58.8c0-0.4,0.2-0.7,0.6-0.7c0.3,0,0.6,0.2,0.6,0.6c0,0.2-0.1,0.4-0.3,0.6c0.1,0.2,0.6,0.3,1,0.3
		c0.7,0,1.1-0.4,1.1-1c0-0.5-0.2-0.7-1-1.2c-0.7-0.4-1.1-0.8-1.1-1.4c0-0.9,0.7-1.7,2-1.7c0.9,0,1.5,0.5,1.5,1.1
		c0,0.4-0.2,0.7-0.6,0.7c-0.3,0-0.6-0.2-0.6-0.5c0-0.1,0-0.4,0.3-0.6c-0.1-0.2-0.5-0.3-0.8-0.3c-0.6,0-0.9,0.4-0.9,0.9
		c0,0.4,0.2,0.7,0.9,1.1c0.8,0.5,1.1,0.8,1.1,1.4c0,0.8-0.6,1.7-2.1,1.7C132.9,59.9,132.1,59.4,132.1,58.8z"/>
	<path class="st0" d="M139,58.6l1-3.2c0.1-0.3-0.1-0.5-0.8-0.5v-0.4l2.1-0.1l-1.3,4c-0.2,0.8-0.2,1,0.9,1v0.3
		c-0.2,0.1-0.7,0.1-1.1,0.1C139.1,59.9,138.7,59.5,139,58.6z M140.6,52.5c0-0.5,0.3-1,0.8-1c0.3,0,0.5,0.2,0.5,0.5
		c0,0.5-0.3,1-0.8,1C140.9,53,140.6,52.9,140.6,52.5z"/>
	<path class="st0" d="M147.4,58.7l0.8-2.3c0.2-0.8,0.1-1.3-0.7-1.3c-0.5,0-1,0.3-1.6,0.8l-1,4h-1.1l0.6-1.9l0.7-2.5
		c0.1-0.3,0-0.5-0.7-0.5v-0.4l1.9-0.1l-0.3,0.9l0,0c0.7-0.6,1.5-0.9,2.1-0.9c0.9,0,1.3,0.7,0.9,1.8l-0.7,2.3c-0.2,0.8-0.2,1,0.8,1
		v0.3c-0.1,0-0.5,0.1-1,0.1C147.5,59.9,147.1,59.6,147.4,58.7z"/>
	<path class="st0" d="M151.9,57.8c0-1.7,1.4-3.4,2.9-3.4c0.9,0,1.5,0.4,1.5,1.1c0,0.5-0.3,0.8-0.7,0.8c-0.3,0-0.6-0.2-0.6-0.6
		c0-0.2,0.1-0.4,0.4-0.6c-0.1-0.2-0.3-0.3-0.6-0.3c-1.2,0-2,1.8-2,3.1c0,0.9,0.4,1.5,1.2,1.5c0.6,0,1.1-0.3,1.6-1l0.3,0.3
		c-0.6,0.8-1.3,1.2-2.1,1.2C152.8,59.9,151.9,59.1,151.9,57.8z"/>
	<path class="st0" d="M159.6,57.9c0,0.9,0.4,1.5,1.1,1.5c0.6,0,1.1-0.3,1.6-1l0.3,0.3c-0.6,0.8-1.3,1.2-2.1,1.2
		c-0.9,0-1.9-0.5-1.9-2c0-1.7,1.3-3.6,3.1-3.6c1,0,1.5,0.5,1.5,1.2c0,0.9-1.1,1.8-3.6,1.8C159.6,57.6,159.6,57.8,159.6,57.9z
		 M162.2,55.4c0-0.4-0.2-0.7-0.7-0.7c-0.8,0-1.6,1-1.9,2.3C161.8,57,162.2,56.2,162.2,55.4z"/>
</g>
<g>
	<path class="st0" d="M169.8,59.4c1,0,1.4-0.1,1.4-0.4v-5.3c0-0.5-0.3-0.6-1.4-0.6v-0.4l2.5-0.2v6.5c0,0.3,0.3,0.3,1.4,0.4v0.4h-3.8
		V59.4z"/>
	<path class="st0" d="M176.8,54.5c0-1.1,0.9-2,2.3-2c1.4,0,2.3,0.8,2.3,1.7c0,0.8-0.4,1.3-1.5,1.8c1.3,0.5,1.7,1.2,1.7,2
		c0,1.2-1.1,2-2.5,2c-1.7,0-2.6-0.8-2.6-1.8c0-0.8,0.6-1.5,1.5-1.9C177.2,55.9,176.8,55.3,176.8,54.5z M177.5,58.1
		c0,0.9,0.6,1.5,1.5,1.5c0.9,0,1.5-0.5,1.5-1.4c0-0.8-0.5-1.2-1.9-1.7l0,0C178,56.8,177.5,57.4,177.5,58.1z M180.5,54.3
		c0-0.8-0.5-1.4-1.4-1.4c-0.8,0-1.3,0.4-1.3,1.3c0,0.7,0.5,1.2,1.7,1.6C180.3,55.4,180.5,54.9,180.5,54.3z"/>
	<path class="st0" d="M184.6,54.5c0-1.1,0.9-2,2.3-2c1.4,0,2.3,0.8,2.3,1.7c0,0.8-0.4,1.3-1.5,1.8c1.3,0.5,1.7,1.2,1.7,2
		c0,1.2-1.1,2-2.5,2c-1.7,0-2.6-0.8-2.6-1.8c0-0.8,0.6-1.5,1.5-1.9C185,55.9,184.6,55.3,184.6,54.5z M185.3,58.1
		c0,0.9,0.6,1.5,1.5,1.5c0.9,0,1.5-0.5,1.5-1.4c0-0.8-0.5-1.2-1.9-1.7l0,0C185.8,56.8,185.3,57.4,185.3,58.1z M188.3,54.3
		c0-0.8-0.5-1.4-1.4-1.4c-0.8,0-1.3,0.4-1.3,1.3c0,0.7,0.5,1.2,1.7,1.6C188.1,55.4,188.3,54.9,188.3,54.3z"/>
	<path class="st0" d="M192.7,59.7c1.1-0.2,3.2-1,3.5-3.4l0,0c-0.4,0.7-1.1,1-1.8,1c-1.3,0-2.2-1-2.2-2.3c0-1.4,1-2.6,2.7-2.6
		c1.7,0,2.6,1.3,2.6,3c0,1.3-0.4,2.2-1.1,3c-0.9,0.9-1.9,1.4-3.5,1.7V59.7z M196.2,54.9c0-1.2-0.6-2-1.5-2c-0.9,0-1.5,0.9-1.5,2.1
		c0,1.2,0.7,1.9,1.5,1.9C195.5,56.9,196.2,56.1,196.2,54.9z"/>
</g>
<g>
	<defs>
		<rect id="SVGID_1_" x="-9.9" y="9" width="349.7" height="57.4"/>
	</defs>
	<clipPath id="SVGID_2_">
		<use xlink:href="#SVGID_1_"  style="overflow:visible;"/>
	</clipPath>
	<path class="st1" d="M14.9,44.2h0.5l2.6-2c1.7,1,4.4,1.8,6.7,1.8c7.3,0,9.8-5.1,9.8-9.4c0-5.4-4.1-6.8-8.2-8.1
		c-4.7-1.6-7.5-2.8-7.5-6.7c0-3.4,2.6-5.4,5.6-5.4c3.5,0,6.2,2.8,8.1,8.1h0.6v-9.2h-0.5l-1.3,1.5c-1.4-0.6-3.7-1.3-6.2-1.3
		c-5.4,0-9.7,3.3-9.7,8.8c0,5.4,4.3,6.5,8.3,8c5.3,1.9,7.9,3.2,7.9,7.2c0,2.6-2.1,5.6-6.5,5.6c-4.7,0-7.4-4-9.6-9.3h-0.6V44.2z
		 M51.5,44.1c6.5,0,10.3-4.3,12.1-8.4l-0.7-0.4c-1.7,3.7-5.3,7.2-10.3,7.2c-4.9,0-10.7-3.6-10.7-13.6c0-10.6,4.8-14.7,9.9-14.7
		c4.4,0,7.5,2.9,9.6,8.5h0.5v-9.6h-0.4l-1.8,1.9c-2-1-4.4-1.6-7.5-1.6c-8.4,0-15,6.7-15,15.7C37.2,38.2,43.1,44.1,51.5,44.1
		 M65.1,43.4h13.1v-0.5c-4-0.1-4.4-1-4.4-3V28.7h13.9v11.2c0,1.9-0.4,2.8-4.4,3v0.5h13.1v-0.5c-3.7-0.1-4.7-1.1-4.7-3V17.7
		c0-1.8,1-2.8,4.7-3v-0.5H83.4v0.5c3.9,0.1,4.4,1.1,4.4,3v10.1H73.8V17.7c0-1.9,0.4-2.8,4.4-3v-0.5H65.1v0.5c3.7,0.1,4.7,1.2,4.7,3
		v22.2c0,1.8-1,2.8-4.7,3V43.4z M114.5,44.1c7.3,0,10.7-4,10.7-9.6V21.1c0-4.1,0.8-5.7,4.7-6.4v-0.5h-11.3v0.5
		c4.2,0.6,5.5,2.3,5.5,6.4v13c0,3.1-0.9,5.2-2.3,6.7c-1.3,1.3-3.3,2-5.4,2c-4.7,0-8.9-1.9-8.9-8.4V17.7c0-1.9,0.5-2.9,4.4-3v-0.5
		H98.8v0.5c3.7,0.1,4.7,1.2,4.7,3v17.7C103.6,41,107.6,44.1,114.5,44.1 M131.9,43.4h11.2v-0.5c-4.3-0.6-5.2-2.3-5.2-6.4V16.9h0.2
		l11.1,26.6h0.5l10.4-26.6h0.2v22.9c0,1.9-0.4,2.9-4.4,3v0.5h12.6v-0.5c-3.7-0.1-4.3-1.2-4.3-3V17.7c0-1.8,1-2.9,4.7-3v-0.5h-8.9
		l-9.1,23.4h-0.2l-9.5-23.4h-9.6v0.5c3.6,0.1,5,2.2,5,4.8v17c0,4.1-1.1,5.7-5,6.4V43.4z M190.6,39.3c0.9,2.5,0.4,3.4-3.6,3.6v0.5
		h12.8v-0.5c-3.3-0.4-3.9-1.2-5.1-4.4l-9.3-25.2h-0.9l-9,22.7c-1.9,4.7-2.8,6.2-5.6,6.9v0.5h9.3v-0.5c-3.8-0.6-4.5-2-2.5-7.2
		l1.3-3.5h10.1L190.6,39.3z M178.4,31.4l4.9-12.6h0.2l4.4,12.6H178.4z M211.1,44.1c6.5,0,10.3-4.3,12.1-8.4l-0.7-0.4
		c-1.7,3.7-5.3,7.2-10.3,7.2c-4.9,0-10.7-3.6-10.7-13.6c0-10.6,4.8-14.7,9.9-14.7c4.4,0,7.5,2.9,9.6,8.5h0.5v-9.6h-0.4l-1.8,1.9
		c-2-1-4.4-1.6-7.5-1.6c-8.4,0-15,6.7-15,15.7C196.8,38.2,202.8,44.1,211.1,44.1 M223.9,43.4H237v-0.5c-4-0.1-4.4-1-4.4-3V28.7h13.9
		v11.2c0,1.9-0.4,2.8-4.4,3v0.5h13.1v-0.5c-3.7-0.1-4.7-1.1-4.7-3V17.7c0-1.8,1-2.8,4.7-3v-0.5h-13.1v0.5c3.9,0.1,4.4,1.1,4.4,3
		v10.1h-13.9V17.7c0-1.9,0.4-2.8,4.4-3v-0.5h-13.1v0.5c3.7,0.1,4.7,1.2,4.7,3v22.2c0,1.8-1,2.8-4.7,3V43.4z M258.2,43.4h24.9
		l0.2-9.5l-0.5,0c-2.2,5.9-4.6,8.8-10.3,8.8h-5.5V28.7h2.6c3.5,0,5.3,1.2,6.4,5.8h0.5V22.1h-0.5c-1.1,4.6-2.9,5.8-6.4,5.8h-2.6V15.1
		h5.5c4.9,0,7,2.8,9,8.3l0.5,0l-0.1-9h-23.7v0.5c3.7,0.1,4.7,1.2,4.7,3v22.1c0,1.8-1,2.9-4.7,3V43.4z M294.6,28.4V15.1h3.4
		c6,0,7.8,2.5,7.8,6.4c0,4.1-1.2,7-7.1,7H294.6z M294.6,29.2h3.8c5,0,6.1,0.9,6.6,5.1l0.5,4c0.5,3.9,1.3,5.4,5.2,5.4
		c1.4,0,3-0.2,4.3-0.6v-0.5c-3.7,0-4.4-0.5-5.1-4.5l-0.3-1.7c-0.7-4.5-2-7.2-8.2-7.5v-0.1c6.4-0.9,8.9-3.8,8.9-7.5
		c0-4-3.4-7.1-12-7.1h-12.4v0.5c3.7,0.1,4.7,1.2,4.7,3v22.1c0,1.8-1,2.9-4.7,3v0.5h13.3v-0.5c-3.9-0.1-4.6-1.1-4.6-3V29.2z"/>
</g>
</svg>
