<?xml version="1.0" encoding="utf-8"?>
<!-- Generator: Adobe Illustrator 19.1.0, SVG Export Plug-In . SVG Version: 6.00 Build 0)  -->
<svg version="1.1" id="Layer_1" xmlns="http://www.w3.org/2000/svg" xmlns:xlink="http://www.w3.org/1999/xlink" x="0px" y="0px"
	 viewBox="0 0 452.6 50.5" style="enable-background:new 0 0 452.6 50.5;" xml:space="preserve">
<style type="text/css">
	.st0{fill:#555759;}
</style>
<g>
	<g>
		<g>
			<path class="st0" d="M7.4,17.4H0.1v18.4h3.6v-6.3h3.7c4.7,0,7.4-2.2,7.4-6C14.8,19.5,12.1,17.4,7.4,17.4 M3.7,26.4v-6.1h3.6
				c2.7,0,3.9,1.1,3.9,3.1c0,2-1.2,3-3.9,3H3.7z"/>
		</g>
		<path class="st0" d="M26.8,21.5H27l2.8,6.9h-5.6L26.8,21.5z M25,17.4l-7.4,18.4h3.7l1.8-4.5h7.8l1.8,4.5h3.9l-7.5-18.4H25z"/>
		<polygon class="st0" points="38.9,17.4 38.9,20.4 45.4,20.4 45.4,35.7 49,35.7 49,20.4 55.6,20.4 55.6,17.4 		"/>
		<polygon class="st0" points="60.9,17.4 60.9,20.4 67.4,20.4 67.4,35.7 71,35.7 71,20.4 77.6,20.4 77.6,17.4 		"/>
		<polygon class="st0" points="83.7,17.4 83.7,35.7 97.5,35.7 97.5,32.7 87.3,32.7 87.3,27.9 95.1,27.9 95.1,24.9 87.3,24.9 
			87.3,20.4 97.2,20.4 97.2,17.4 		"/>
		<g>
			<path class="st0" d="M112.2,17.4h-8.3v18.4h3.6v-6.8h4.3c2.1,0,3,0.9,3.2,3c0.1,2,0.4,3.3,0.8,3.8h3.7c-0.6-0.7-0.7-1.6-0.9-4.3
				c-0.2-2.2-1.3-3.4-3.4-3.8c2.2-0.3,4.1-1.9,4.1-4.7C119.2,19.5,116.9,17.4,112.2,17.4 M107.4,26.1v-5.8h4.2
				c2.7,0,3.9,1.1,3.9,2.9c0,2-1.2,2.9-3.9,2.9H107.4z"/>
			<path class="st0" d="M132.2,17c-4.3,0-7,2.2-7,5.7c0,3,2,4.6,4.8,5.1l3.5,0.6c1.9,0.4,3,0.9,3,2.3c0,1.5-1.5,2.4-3.7,2.4
				c-2.6,0-4.6-1.3-4.8-4.1l-3.4,0.1c0,4.4,3.4,6.9,8.1,6.9c4.1,0,7.3-2,7.3-5.6c0-3-1.7-4.7-5.3-5.4l-3.4-0.6
				c-1.7-0.3-2.6-0.8-2.6-2.1c0-1.6,1.2-2.5,3.4-2.5c2.5,0,4.1,1.3,4.3,3.8l3.4-0.1C139.7,19.5,137,17,132.2,17"/>
			<path class="st0" d="M155,17c-5.4,0-9.3,3.9-9.3,9.5c0,5.7,4,9.5,9.3,9.5c5.3,0,9.3-3.9,9.3-9.5C164.3,20.9,160.3,17,155,17
				 M155,32.9c-3.4,0-5.5-2.5-5.5-6.3c0-3.8,2.2-6.3,5.5-6.3c3.4,0,5.5,2.5,5.5,6.3C160.5,30.4,158.4,32.9,155,32.9"/>
			<path class="st0" d="M451.8,17"/>
		</g>
		<polygon class="st0" points="182.8,17.4 182.8,29.6 174.1,17.4 170.5,17.4 170.5,35.7 173.9,35.7 173.9,22.8 183.3,35.7 
			186.2,35.7 186.2,17.4 		"/>
		<polygon class="st0" points="211.4,17.4 211.4,35.7 215.1,35.7 215.1,28.3 222.4,28.3 222.4,25.3 215.1,25.3 215.1,20.4 
			224.6,20.4 224.6,17.4 		"/>
		<polygon class="st0" points="230.8,17.4 230.8,35.7 244.1,35.7 244.1,32.7 234.4,32.7 234.4,17.4 		"/>
		<polygon class="st0" points="259.4,17.4 254.6,25.1 249.6,17.4 245.5,17.4 252.6,28.6 252.6,35.7 256.2,35.7 256.2,28.6 
			263.3,17.4 		"/>
		<polygon class="st0" points="281.2,17.4 281.2,29.6 272.6,17.4 268.9,17.4 268.9,35.7 272.3,35.7 272.3,22.8 281.7,35.7 
			284.6,35.7 284.6,17.4 		"/>
		<polygon class="st0" points="304,17.4 304,29.6 295.3,17.4 291.7,17.4 291.7,35.7 295.1,35.7 295.1,22.8 304.4,35.7 307.4,35.7 
			307.4,17.4 		"/>
		<polygon class="st0" points="346.3,17.4 342.5,30.7 342.4,30.7 338.3,17.4 332.6,17.4 332.6,35.7 336,35.7 336,21.3 336.1,21.3 
			340.6,35.7 343.7,35.7 348.1,21.3 348.2,21.3 348.2,35.7 351.9,35.7 351.9,17.4 		"/>
		<path class="st0" d="M366.8,21.5h0.1l2.8,6.9h-5.6L366.8,21.5z M365,17.4l-7.4,18.4h3.7l1.8-4.5h7.8l1.8,4.5h3.9L369,17.4H365z"/>
		<g>
			<path class="st0" d="M390.4,17.4h-8.3v18.4h3.6v-6.8h4.3c2.1,0,3,0.9,3.2,3c0.1,2,0.4,3.3,0.8,3.8h3.7c-0.6-0.7-0.7-1.6-0.9-4.3
				c-0.2-2.2-1.3-3.4-3.4-3.8c2.2-0.3,4.1-1.9,4.1-4.7C397.4,19.5,395.1,17.4,390.4,17.4 M385.7,26.1v-5.8h4.2
				c2.7,0,3.9,1.1,3.9,2.9c0,2-1.2,2.9-3.9,2.9H385.7z"/>
		</g>
		<polygon class="st0" points="402.6,17.4 402.6,20.4 409.1,20.4 409.1,35.7 412.7,35.7 412.7,20.4 419.3,20.4 419.3,17.4 		"/>
		<rect x="425.4" y="17.4" class="st0" width="3.6" height="18.4"/>
		<polygon class="st0" points="448.4,17.4 448.4,29.6 439.8,17.4 436.1,17.4 436.1,35.7 439.5,35.7 439.5,22.8 448.9,35.7 
			451.8,35.7 451.8,17.4 		"/>
	</g>
</g>
</svg>
